<svg width="449" height="376" viewBox="0 0 449 376" fill="none" xmlns="http://www.w3.org/2000/svg">
<g clip-path="url(#clip0)">
<path d="M185.008 88.7433H182.97V32.8497C182.97 28.6015 182.134 24.3949 180.509 20.47C178.885 16.5451 176.504 12.9789 173.502 9.97497C170.501 6.97102 166.937 4.58816 163.016 2.96243C159.094 1.33671 154.891 0.499971 150.646 0.499985H32.3236C28.0788 0.499971 23.8756 1.33671 19.9539 2.96243C16.0322 4.58816 12.4689 6.97102 9.46737 9.97498C6.46584 12.9789 4.08489 16.5451 2.46047 20.47C0.836061 24.3949 -6.64004e-06 28.6015 0 32.8497V339.486C-3.98401e-06 343.735 0.836068 347.941 2.46048 351.866C4.0849 355.791 6.46584 359.357 9.46737 362.361C12.4689 365.365 16.0322 367.748 19.9539 369.374C23.8756 370.999 28.0788 371.836 32.3236 371.836H150.646C154.891 371.836 159.094 370.999 163.016 369.374C166.937 367.748 170.501 365.365 173.502 362.361C176.504 359.357 178.885 355.791 180.509 351.866C182.134 347.941 182.97 343.735 182.97 339.486V128.529H185.008V88.7433Z" fill="#E6E6E6"/>
<path d="M151.95 8.91629H136.505C137.215 10.6591 137.487 12.5499 137.295 14.4223C137.103 16.2946 136.454 18.091 135.405 19.6532C134.356 21.2153 132.939 22.4953 131.279 23.3804C129.62 24.2655 127.768 24.7285 125.887 24.7287H58.1017C56.2211 24.7285 54.3693 24.2655 52.7096 23.3804C51.0498 22.4953 49.6331 21.2153 48.5841 19.6532C47.5351 18.091 46.886 16.2946 46.6941 14.4223C46.5022 12.5499 46.7733 10.6591 47.4836 8.91629H33.058C29.888 8.91629 26.7491 9.54116 23.8204 10.7552C20.8918 11.9693 18.2307 13.7488 15.9892 15.9921C13.7477 18.2354 11.9696 20.8986 10.7565 23.8296C9.54345 26.7607 8.91907 29.9021 8.91907 33.0747V339.262C8.91907 342.434 9.54344 345.576 10.7565 348.507C11.9696 351.438 13.7477 354.101 15.9892 356.344C18.2307 358.587 20.8917 360.367 23.8204 361.581C26.7491 362.795 29.888 363.42 33.058 363.42H151.95C155.12 363.42 158.259 362.795 161.188 361.581C164.116 360.367 166.777 358.587 169.019 356.344C171.261 354.101 173.039 351.438 174.252 348.507C175.465 345.576 176.089 342.434 176.089 339.262V33.0747C176.089 29.9021 175.465 26.7607 174.252 23.8296C173.039 20.8986 171.26 18.2354 169.019 15.9921C166.777 13.7488 164.116 11.9693 161.188 10.7552C158.259 9.54116 155.12 8.91629 151.95 8.91629Z" fill="white"/>
<path d="M57.4762 71.1607H50.3775C50.1279 71.1607 49.8886 71.26 49.7121 71.4366C49.5356 71.6133 49.4364 71.8528 49.4364 72.1026V75.221C49.4364 75.4708 49.5356 75.7104 49.7121 75.887C49.8886 76.0636 50.1279 76.1629 50.3775 76.1629H51.5539V80.8352H56.2999V76.1629H57.4762C57.7258 76.1629 57.9652 76.0636 58.1417 75.887C58.3182 75.7104 58.4174 75.4708 58.4174 75.221V72.1026C58.4174 71.8528 58.3182 71.6133 58.1417 71.4366C57.9652 71.26 57.7258 71.1607 57.4762 71.1607Z" fill="#E6E6E6"/>
<path d="M64.5863 99.6998C60.2389 93.3332 58.0164 85.7528 58.2372 78.0446C58.2412 77.8667 58.1835 77.693 58.074 77.5529C57.9645 77.4127 57.8099 77.3149 57.6364 77.2759V75.9284H50.1393V77.2571H50.036C49.8319 77.2574 49.6364 77.3388 49.4923 77.4833C49.3482 77.6279 49.2674 77.8238 49.2677 78.028C49.2677 78.0467 49.2684 78.0654 49.2698 78.0841C49.8604 86.3241 47.866 93.7135 43.2865 100.252C43.023 100.628 42.8883 101.079 42.9028 101.538L43.7226 126.917C43.7423 127.483 43.9797 128.02 44.3852 128.415C44.7907 128.81 45.333 129.033 45.899 129.037H62.8564C63.4288 129.033 63.9768 128.804 64.3835 128.401C64.7903 127.998 65.0238 127.452 65.0341 126.879L65.35 102.239C65.3594 101.335 65.093 100.449 64.5863 99.6998Z" fill="#E6E6E6"/>
<path d="M61.9019 108.13H47.1417C46.9232 108.13 46.7073 108.177 46.5088 108.268C46.3103 108.36 46.1339 108.493 45.9916 108.659C45.8493 108.825 45.7446 109.02 45.6846 109.23C45.6246 109.44 45.6107 109.661 45.644 109.877L47.8744 124.387H60.6821L63.3913 109.926C63.4324 109.707 63.4247 109.481 63.3688 109.266C63.3129 109.05 63.2102 108.849 63.068 108.678C62.9258 108.506 62.7476 108.368 62.546 108.274C62.3445 108.179 62.1245 108.13 61.9019 108.13Z" fill="white"/>
<path d="M136.498 147.185H129.4C129.15 147.185 128.911 147.285 128.734 147.461C128.558 147.638 128.458 147.878 128.458 148.127V151.246C128.458 151.495 128.558 151.735 128.734 151.912C128.911 152.088 129.15 152.188 129.4 152.188H130.576V156.86H135.322V152.188H136.498C136.748 152.188 136.987 152.088 137.164 151.912C137.34 151.735 137.439 151.495 137.439 151.246V148.127C137.439 147.878 137.34 147.638 137.164 147.461C136.987 147.285 136.748 147.185 136.498 147.185Z" fill="#E6E6E6"/>
<path d="M143.608 175.725C139.261 169.358 137.038 161.777 137.259 154.069C137.263 153.891 137.206 153.718 137.096 153.578C136.987 153.437 136.832 153.34 136.659 153.301V151.953H129.161V153.282H129.058C128.957 153.282 128.857 153.302 128.764 153.341C128.67 153.38 128.586 153.436 128.514 153.508C128.443 153.58 128.386 153.665 128.348 153.758C128.309 153.851 128.29 153.952 128.29 154.053C128.29 154.071 128.291 154.09 128.292 154.109C128.883 162.349 126.888 169.738 122.309 176.277C122.045 176.653 121.91 177.104 121.925 177.563L122.745 202.942C122.764 203.508 123.002 204.044 123.407 204.439C123.813 204.834 124.355 205.057 124.921 205.062H141.879C142.451 205.057 142.999 204.829 143.406 204.426C143.812 204.023 144.046 203.477 144.056 202.904L144.372 178.264C144.381 177.359 144.115 176.473 143.608 175.725Z" fill="#E6E6E6"/>
<path d="M140.924 184.154H126.164C125.945 184.154 125.73 184.202 125.531 184.293C125.333 184.384 125.156 184.518 125.014 184.684C124.872 184.85 124.767 185.044 124.707 185.255C124.647 185.465 124.633 185.686 124.666 185.902L126.897 200.411H139.704L142.414 185.951C142.455 185.732 142.447 185.506 142.391 185.29C142.335 185.075 142.232 184.874 142.09 184.703C141.948 184.531 141.77 184.393 141.568 184.298C141.367 184.204 141.147 184.154 140.924 184.154H140.924Z" fill="white"/>
<path d="M47.4964 254.662H44.1292C44.0108 254.662 43.8972 254.709 43.8135 254.793C43.7298 254.877 43.6827 254.99 43.6827 255.109V256.588C43.6827 256.706 43.7298 256.82 43.8135 256.904C43.8972 256.988 44.0108 257.035 44.1292 257.035H44.6872V259.251H46.9384V257.035H47.4964C47.6148 257.035 47.7284 256.988 47.8121 256.904C47.8958 256.82 47.9428 256.706 47.9428 256.588V255.109C47.9428 254.99 47.8958 254.877 47.8121 254.793C47.7284 254.709 47.6148 254.662 47.4964 254.662Z" fill="#E6E6E6"/>
<path d="M50.869 268.199C48.8068 265.179 47.7526 261.584 47.8573 257.927C47.8592 257.843 47.8318 257.761 47.7799 257.694C47.7279 257.628 47.6546 257.581 47.5723 257.563V256.924H44.0161V257.554H43.9671C43.9192 257.554 43.8717 257.563 43.8275 257.582C43.7832 257.6 43.743 257.627 43.7092 257.661C43.6754 257.695 43.6485 257.735 43.6303 257.78C43.612 257.824 43.6026 257.872 43.6027 257.919C43.6027 257.928 43.603 257.937 43.6037 257.946C43.9319 261.677 42.9261 265.403 40.7655 268.462C40.6405 268.64 40.5766 268.854 40.5835 269.071L40.9723 281.11C40.9817 281.378 41.0943 281.633 41.2867 281.82C41.479 282.008 41.7363 282.113 42.0047 282.115H50.0484C50.3199 282.113 50.5798 282.005 50.7728 281.814C50.9657 281.623 51.0765 281.364 51.0814 281.092L51.2312 269.404C51.2357 268.975 51.1093 268.555 50.869 268.199Z" fill="#E6E6E6"/>
<path d="M49.7114 272.625H42.0364V276.465H49.7114V272.625Z" fill="white"/>
<path d="M63.171 254.662H59.8037C59.6853 254.662 59.5718 254.709 59.4881 254.793C59.4043 254.877 59.3573 254.99 59.3573 255.109V256.588C59.3573 256.706 59.4043 256.82 59.4881 256.904C59.5718 256.988 59.6853 257.035 59.8037 257.035H60.3617V259.251H62.613V257.035H63.171C63.2894 257.035 63.4029 256.988 63.4866 256.904C63.5704 256.82 63.6174 256.706 63.6174 256.588V255.109C63.6174 254.99 63.5704 254.877 63.4866 254.793C63.4029 254.709 63.2894 254.662 63.171 254.662Z" fill="#E6E6E6"/>
<path d="M66.5436 268.199C64.4814 265.179 63.4271 261.584 63.5319 257.927C63.5338 257.843 63.5064 257.761 63.4545 257.694C63.4025 257.628 63.3292 257.581 63.2469 257.563V256.924H59.6907V257.554H59.6417C59.5937 257.554 59.5463 257.563 59.5021 257.582C59.4578 257.6 59.4176 257.627 59.3838 257.661C59.3499 257.695 59.3231 257.735 59.3048 257.78C59.2865 257.824 59.2772 257.872 59.2772 257.919C59.2772 257.928 59.2776 257.937 59.2782 257.946C59.6065 261.677 58.6007 265.403 56.4401 268.462C56.3151 268.64 56.2512 268.854 56.2581 269.071L56.6469 281.11C56.6563 281.378 56.7689 281.633 56.9612 281.82C57.1536 282.008 57.4108 282.113 57.6793 282.115H65.723C65.9945 282.113 66.2544 282.005 66.4474 281.814C66.6403 281.623 66.751 281.364 66.756 281.092L66.9058 269.404C66.9103 268.975 66.7839 268.555 66.5436 268.199Z" fill="#E6E6E6"/>
<path d="M65.3859 272.625H57.7109V276.465H65.3859V272.625Z" fill="white"/>
<path d="M78.8455 254.662H75.4783C75.3599 254.662 75.2463 254.709 75.1626 254.793C75.0789 254.877 75.0319 254.99 75.0319 255.109V256.588C75.0319 256.706 75.0789 256.82 75.1626 256.904C75.2463 256.988 75.3599 257.035 75.4783 257.035H76.0363V259.251H78.2875V257.035H78.8455C78.9639 257.035 79.0775 256.988 79.1612 256.904C79.2449 256.82 79.2919 256.706 79.2919 256.588V255.109C79.2919 254.99 79.2449 254.877 79.1612 254.793C79.0775 254.709 78.9639 254.662 78.8455 254.662Z" fill="#E6E6E6"/>
<path d="M82.2181 268.199C80.1559 265.179 79.1017 261.584 79.2064 257.927C79.2083 257.843 79.181 257.761 79.129 257.694C79.0771 257.628 79.0037 257.581 78.9215 257.563V256.924H75.3652V257.554H75.3162C75.2683 257.554 75.2209 257.563 75.1766 257.582C75.1324 257.6 75.0922 257.627 75.0583 257.661C75.0245 257.695 74.9977 257.735 74.9794 257.78C74.9611 257.824 74.9517 257.872 74.9518 257.919C74.9518 257.928 74.9521 257.937 74.9528 257.946C75.281 261.677 74.2753 265.403 72.1146 268.462C71.9896 268.64 71.9258 268.854 71.9326 269.071L72.3215 281.11C72.3308 281.378 72.4434 281.633 72.6358 281.82C72.8281 282.008 73.0854 282.113 73.3538 282.115H81.3975C81.669 282.113 81.929 282.005 82.1219 281.814C82.3149 281.623 82.4256 281.364 82.4305 281.092L82.5804 269.404C82.5848 268.975 82.4584 268.555 82.2181 268.199Z" fill="#E6E6E6"/>
<path d="M81.0605 272.625H73.3855V276.465H81.0605V272.625Z" fill="white"/>
<path d="M124.166 225.251H117.068C116.944 225.251 116.822 225.275 116.707 225.323C116.593 225.37 116.49 225.439 116.402 225.527C116.315 225.614 116.245 225.718 116.198 225.832C116.151 225.947 116.126 226.069 116.126 226.193V229.311C116.126 229.561 116.226 229.801 116.402 229.977C116.579 230.154 116.818 230.253 117.068 230.253H118.244V234.926H122.99V230.253H124.166C124.416 230.253 124.655 230.154 124.832 229.977C125.008 229.801 125.107 229.561 125.107 229.311V226.193C125.107 226.069 125.083 225.947 125.036 225.832C124.989 225.718 124.919 225.614 124.832 225.527C124.744 225.439 124.641 225.37 124.526 225.323C124.412 225.275 124.29 225.251 124.166 225.251Z" fill="#E6E6E6"/>
<path d="M131.276 253.79C126.929 247.423 124.706 239.843 124.927 232.135C124.931 231.957 124.874 231.783 124.764 231.643C124.655 231.503 124.5 231.405 124.326 231.366V230.019H116.829V231.347H116.726C116.625 231.348 116.525 231.368 116.432 231.406C116.338 231.445 116.254 231.502 116.182 231.574C116.111 231.645 116.054 231.73 116.016 231.824C115.977 231.917 115.958 232.017 115.958 232.118C115.958 232.137 115.958 232.156 115.96 232.174C116.551 240.414 114.556 247.804 109.977 254.343C109.713 254.719 109.578 255.17 109.593 255.629L110.413 281.007C110.432 281.573 110.67 282.11 111.075 282.505C111.481 282.9 112.023 283.123 112.589 283.128H129.546C130.119 283.123 130.667 282.895 131.074 282.492C131.48 282.089 131.714 281.543 131.724 280.97L132.04 256.329C132.049 255.425 131.783 254.539 131.276 253.79Z" fill="#E6E6E6"/>
<path d="M128.592 262.22H113.832C113.613 262.22 113.398 262.267 113.199 262.359C113 262.45 112.824 262.583 112.682 262.749C112.54 262.915 112.435 263.11 112.375 263.32C112.315 263.53 112.301 263.751 112.334 263.967L114.565 278.477H127.372L130.082 264.016C130.123 263.797 130.115 263.572 130.059 263.356C130.003 263.14 129.9 262.94 129.758 262.768C129.616 262.597 129.438 262.459 129.236 262.364C129.035 262.269 128.815 262.22 128.592 262.22Z" fill="white"/>
<path d="M128.042 132.304H85.7267C88.6851 116.297 88.0045 96.9668 85.7267 76.1788H128.042C125.825 96.9668 125.162 116.297 128.042 132.304Z" fill="#E6E6E6"/>
<path d="M107.139 112.916C112.77 112.916 117.335 108.347 117.335 102.711C117.335 97.075 112.77 92.5062 107.139 92.5062C101.508 92.5062 96.9426 97.075 96.9426 102.711C96.9426 108.347 101.508 112.916 107.139 112.916Z" fill="white"/>
<path d="M89.2954 206.798H46.9803C49.9388 190.791 49.2581 171.461 46.9803 150.673H89.2954C87.0782 171.461 86.4157 190.791 89.2954 206.798Z" fill="#E6E6E6"/>
<path d="M68.3928 187.41C74.0241 187.41 78.5892 182.841 78.5892 177.205C78.5892 171.569 74.0241 167 68.3928 167C62.7615 167 58.1964 171.569 58.1964 177.205C58.1964 182.841 62.7615 187.41 68.3928 187.41Z" fill="white"/>
<path d="M152.003 135.876H109.688C112.647 119.868 111.966 100.538 109.688 79.7504H152.003C149.786 100.538 149.124 119.868 152.003 135.876Z" fill="#E6E6E6"/>
<path d="M131.101 116.487C136.732 116.487 141.297 111.918 141.297 106.283C141.297 100.647 136.732 96.0779 131.101 96.0779C125.469 96.0779 120.904 100.647 120.904 106.283C120.904 111.918 125.469 116.487 131.101 116.487Z" fill="white"/>
<path d="M152.003 133.325H109.688C112.647 117.317 111.966 97.9872 109.688 77.1993H152.003C149.786 97.9873 149.124 117.317 152.003 133.325Z" fill="#E6E6E6"/>
<path d="M131.101 113.936C136.732 113.936 141.297 109.367 141.297 103.731C141.297 98.0955 136.732 93.5267 131.101 93.5267C125.469 93.5267 120.904 98.0955 120.904 103.731C120.904 109.367 125.469 113.936 131.101 113.936Z" fill="white"/>
<path d="M152.003 135.876H109.688C112.647 119.868 111.966 100.538 109.688 79.7504H152.003C149.786 100.538 149.124 119.868 152.003 135.876Z" fill="#E6E6E6"/>
<path d="M131.101 116.487C136.732 116.487 141.297 111.918 141.297 106.283C141.297 100.647 136.732 96.0779 131.101 96.0779C125.469 96.0779 120.904 100.647 120.904 106.283C120.904 111.918 125.469 116.487 131.101 116.487Z" fill="white"/>
<path d="M161.69 129.243H23.0188V144.55H161.69V129.243Z" fill="#E6E6E6"/>
<path d="M161.69 205.268H23.0188V220.575H161.69V205.268Z" fill="#E6E6E6"/>
<path d="M161.69 281.292H23.0188V296.599H161.69V281.292Z" fill="#E6E6E6"/>
<path d="M402.914 343.392L368.367 318.937C380.018 307.578 390.616 291.403 400.751 273.115L435.298 297.57C421.493 313.26 409.799 328.659 402.914 343.392Z" fill="#ECECEC"/>
<path d="M402.924 317.356C408.555 317.356 413.12 312.787 413.12 307.151C413.12 301.515 408.555 296.946 402.924 296.946C397.292 296.946 392.727 301.515 392.727 307.151C392.727 312.787 397.292 317.356 402.924 317.356Z" fill="white"/>
<path d="M236.262 231.8H232.47C232.337 231.8 232.209 231.853 232.114 231.947C232.02 232.041 231.967 232.169 231.967 232.303V233.969C231.967 234.035 231.98 234.1 232.005 234.161C232.031 234.222 232.068 234.278 232.114 234.325C232.161 234.371 232.217 234.408 232.278 234.434C232.339 234.459 232.404 234.472 232.47 234.472H233.098V236.968H235.634V234.472H236.262C236.396 234.472 236.523 234.419 236.618 234.325C236.712 234.23 236.765 234.102 236.765 233.969V232.303C236.765 232.169 236.712 232.042 236.618 231.947C236.523 231.853 236.396 231.8 236.262 231.8Z" fill="#E6E6E6"/>
<path d="M240.061 247.046C237.738 243.645 236.551 239.595 236.669 235.477C236.671 235.382 236.64 235.289 236.582 235.215C236.523 235.14 236.44 235.087 236.348 235.067V234.347H232.343V235.057H232.288C232.234 235.057 232.18 235.067 232.13 235.088C232.08 235.109 232.035 235.139 231.997 235.177C231.959 235.216 231.929 235.261 231.908 235.311C231.888 235.361 231.877 235.414 231.877 235.468C231.877 235.478 231.877 235.488 231.878 235.498C232.248 239.7 231.115 243.897 228.682 247.341C228.541 247.542 228.469 247.783 228.477 248.028L228.915 261.586C228.925 261.888 229.052 262.175 229.269 262.386C229.485 262.597 229.775 262.716 230.077 262.718H239.136C239.442 262.716 239.735 262.594 239.952 262.379C240.17 262.163 240.294 261.872 240.3 261.566L240.469 248.402C240.474 247.919 240.331 247.446 240.061 247.046Z" fill="#ECECEC"/>
<path opacity="0.2" d="M235.472 232.343C235.472 232.63 235.357 232.907 235.154 233.11C234.951 233.314 234.675 233.428 234.387 233.428C234.099 233.428 233.823 233.314 233.62 233.11C233.417 232.907 233.302 232.63 233.302 232.343" fill="black"/>
<path d="M238.296 249.658H230.649V254.76H238.296V249.658Z" fill="white"/>
<path d="M356.269 284.764H349.17C348.92 284.764 348.681 284.863 348.504 285.04C348.328 285.216 348.229 285.456 348.229 285.706V288.824C348.229 289.074 348.328 289.313 348.504 289.49C348.681 289.667 348.92 289.766 349.17 289.766H350.346V294.438H355.092V289.766H356.269C356.518 289.766 356.758 289.667 356.934 289.49C357.111 289.313 357.21 289.074 357.21 288.824V285.706C357.21 285.456 357.111 285.216 356.934 285.04C356.758 284.863 356.518 284.764 356.269 284.764Z" fill="#E6E6E6"/>
<path d="M363.379 313.303C359.031 306.936 356.809 299.356 357.03 291.648C357.034 291.47 356.976 291.296 356.866 291.156C356.757 291.016 356.602 290.918 356.429 290.879V289.531H348.932V290.86H348.828C348.727 290.86 348.627 290.88 348.534 290.919C348.441 290.958 348.356 291.015 348.285 291.086C348.213 291.158 348.157 291.243 348.118 291.336C348.08 291.43 348.06 291.53 348.06 291.631C348.06 291.65 348.061 291.668 348.062 291.687C348.653 299.927 346.658 307.317 342.079 313.855C341.815 314.231 341.681 314.682 341.695 315.141L342.515 340.52C342.535 341.086 342.772 341.623 343.178 342.018C343.583 342.413 344.125 342.636 344.691 342.64H361.649C362.221 342.636 362.769 342.407 363.176 342.004C363.583 341.601 363.816 341.055 363.827 340.483L364.142 315.842C364.152 314.938 363.885 314.052 363.379 313.303Z" fill="#ECECEC"/>
<path opacity="0.2" d="M354.789 285.78C354.789 286.319 354.575 286.836 354.194 287.217C353.813 287.598 353.297 287.812 352.758 287.812C352.22 287.812 351.703 287.598 351.323 287.217C350.942 286.836 350.728 286.319 350.728 285.78" fill="black"/>
<path d="M360.694 321.733H345.934C345.716 321.733 345.5 321.78 345.301 321.871C345.103 321.963 344.926 322.096 344.784 322.262C344.642 322.428 344.537 322.623 344.477 322.833C344.417 323.043 344.403 323.264 344.436 323.48L346.667 337.99H359.474L362.184 323.529C362.225 323.31 362.217 323.085 362.161 322.869C362.105 322.653 362.003 322.452 361.86 322.281C361.718 322.109 361.54 321.971 361.338 321.877C361.137 321.782 360.917 321.733 360.694 321.733Z" fill="white"/>
<path d="M336.015 343.352H293.7C296.658 327.344 295.978 308.014 293.7 287.226H336.015C333.798 308.014 333.135 327.344 336.015 343.352Z" fill="#ECECEC"/>
<path d="M315.112 323.963C320.744 323.963 325.309 319.394 325.309 313.759C325.309 308.123 320.744 303.554 315.112 303.554C309.481 303.554 304.916 308.123 304.916 313.759C304.916 319.394 309.481 323.963 315.112 323.963Z" fill="white"/>
<path d="M162.936 166.717L172.435 165.853L178.481 151.16L167.686 145.11L162.936 166.717Z" fill="#FFB8B8"/>
<path d="M250.115 207.052C250.431 206.264 250.555 205.412 250.478 204.566C250.4 203.72 250.122 202.905 249.668 202.187C249.213 201.47 248.595 200.871 247.864 200.44C247.133 200.008 246.31 199.757 245.463 199.706L230.714 198.826L228.542 206.053L243.725 210.227C244.994 210.575 246.347 210.445 247.525 209.859C248.704 209.274 249.626 208.275 250.115 207.052Z" fill="#FFB8B8"/>
<path d="M234.278 210.348L234.116 196.786L201.355 191.555L176.116 162.585C174.803 161.078 172.988 160.098 171.009 159.827C169.029 159.556 167.018 160.013 165.349 161.112C164.338 161.777 163.486 162.657 162.852 163.688C162.219 164.719 161.819 165.878 161.682 167.08C161.544 168.283 161.673 169.502 162.058 170.65C162.443 171.798 163.075 172.847 163.91 173.723L184.731 199.368L234.278 210.348Z" fill="#575A89"/>
<path d="M155.595 362.909H164.231L185.651 265.985L207.842 295.927L220.796 360.748H229L227.273 291.174L198.343 216.845H169.845C162.057 230.951 155.948 245.491 162.936 260.492L155.595 362.909Z" fill="#2F2E41"/>
<path d="M215.502 368.796C215.407 369.102 215.377 369.424 215.416 369.742C215.455 370.06 215.561 370.367 215.727 370.64C215.894 370.914 216.116 371.149 216.38 371.33C216.645 371.511 216.944 371.634 217.259 371.69L238.391 375.443C239.226 375.596 240.088 375.438 240.815 374.998C241.542 374.559 242.082 373.869 242.336 373.058C242.582 372.283 242.548 371.446 242.238 370.694C241.929 369.942 241.365 369.323 240.646 368.946C235.999 366.558 232 363.079 228.992 358.806C226.669 360.97 224.073 360.767 221.317 359.171L218.393 359.537L215.502 368.796Z" fill="#2F2E41"/>
<path d="M151.597 368.796C151.501 369.102 151.472 369.424 151.511 369.742C151.55 370.06 151.656 370.367 151.822 370.64C151.988 370.914 152.211 371.149 152.475 371.33C152.739 371.511 153.039 371.634 153.354 371.69L174.486 375.443C175.321 375.596 176.183 375.438 176.91 374.998C177.637 374.559 178.177 373.869 178.431 373.058C178.677 372.283 178.643 371.446 178.333 370.694C178.024 369.942 177.46 369.323 176.741 368.946C172.094 366.558 168.095 363.079 165.087 358.806C162.764 360.97 160.168 360.767 157.412 359.171L154.488 359.537L151.597 368.796Z" fill="#2F2E41"/>
<path d="M178.696 156.562C185.373 156.562 190.786 151.144 190.786 144.462C190.786 137.779 185.373 132.362 178.696 132.362C172.019 132.362 166.606 137.779 166.606 144.462C166.606 151.144 172.019 156.562 178.696 156.562Z" fill="#FFB8B8"/>
<path d="M167.902 220.086L199.422 219.222L190.165 190.064C195.918 180.835 190.128 171.614 181.935 162.396L175.458 158.074L165.095 157.21C160.608 162.015 158.153 168.371 158.244 174.947C158.449 189.028 160.941 204.357 167.902 220.086Z" fill="#575A89"/>
<path d="M240.322 239.713C240.922 239.113 241.371 238.378 241.632 237.57C241.893 236.761 241.958 235.903 241.823 235.064C241.687 234.226 241.354 233.431 240.851 232.747C240.349 232.063 239.691 231.507 238.932 231.127L225.718 224.511L220.88 230.301L233.199 240.116C234.229 240.936 235.524 241.348 236.837 241.274C238.151 241.199 239.391 240.644 240.322 239.713Z" fill="#FFB8B8"/>
<path d="M224.466 236.508L229.648 223.976L201.584 206.267L189.767 169.697C189.153 167.794 187.87 166.179 186.156 165.15C184.442 164.122 182.414 163.75 180.448 164.103C179.257 164.317 178.128 164.79 177.14 165.489C176.152 166.188 175.329 167.095 174.73 168.147C174.131 169.199 173.77 170.37 173.673 171.576C173.576 172.783 173.744 173.997 174.167 175.131L183.23 206.906L224.466 236.508Z" fill="#575A89"/>
<path d="M158.834 139.708C158.834 144.416 161.889 151.708 165.743 154.833C168.335 156.936 171.762 156.848 173.083 153.969C174.438 151.016 179.11 144.075 187.332 139.708C198.293 133.888 183.445 123.929 173.083 125.448C165.296 126.589 158.834 131.832 158.834 139.708Z" fill="#2F2E41"/>
<path d="M166.174 133.226C170.944 133.226 174.81 129.357 174.81 124.583C174.81 119.81 170.944 115.941 166.174 115.941C161.405 115.941 157.539 119.81 157.539 124.583C157.539 129.357 161.405 133.226 166.174 133.226Z" fill="#2F2E41"/>
<path d="M176.106 121.558C176.105 119.379 175.281 117.281 173.8 115.685C172.318 114.088 170.289 113.11 168.117 112.948C168.332 112.932 168.546 112.916 168.765 112.916C171.055 112.916 173.252 113.826 174.872 115.447C176.491 117.068 177.401 119.266 177.401 121.558C177.401 123.851 176.491 126.049 174.872 127.67C173.252 129.291 171.055 130.201 168.765 130.201C168.546 130.201 168.332 130.184 168.117 130.168C170.289 130.006 172.318 129.029 173.8 127.432C175.281 125.835 176.105 123.737 176.106 121.558Z" fill="#2F2E41"/>
<path d="M178.912 148.783C179.985 148.783 180.855 147.622 180.855 146.19C180.855 144.758 179.985 143.598 178.912 143.598C177.839 143.598 176.969 144.758 176.969 146.19C176.969 147.622 177.839 148.783 178.912 148.783Z" fill="#FFB8B8"/>
<path d="M423.593 347.059H289.16L260.692 212.376H236.397V206.333H265.587L294.054 341.015H423.593V347.059Z" fill="#3F3D56"/>
<path d="M308.86 371.664C316.006 371.664 321.8 365.866 321.8 358.714C321.8 351.562 316.006 345.764 308.86 345.764C301.714 345.764 295.92 351.562 295.92 358.714C295.92 365.866 301.714 371.664 308.86 371.664Z" fill="#3F3D56"/>
<path d="M405.477 371.664C412.624 371.664 418.417 365.866 418.417 358.714C418.417 351.562 412.624 345.764 405.477 345.764C398.331 345.764 392.537 351.562 392.537 358.714C392.537 365.866 398.331 371.664 405.477 371.664Z" fill="#3F3D56"/>
<path d="M421.141 344.213H290.346L267.268 230.075H442.798C443.694 230.075 444.579 230.269 445.393 230.644C446.206 231.019 446.929 231.566 447.511 232.247C448.093 232.929 448.521 233.728 448.765 234.59C449.009 235.453 449.063 236.358 448.925 237.244L427.267 338.97C427.043 340.434 426.302 341.768 425.178 342.731C424.053 343.693 422.621 344.219 421.141 344.213ZM291.766 342.486H421.141C422.209 342.491 423.243 342.111 424.054 341.416C424.866 340.722 425.401 339.759 425.562 338.702L447.22 236.976C447.32 236.336 447.281 235.683 447.105 235.06C446.929 234.438 446.62 233.861 446.2 233.369C445.78 232.877 445.258 232.483 444.671 232.212C444.084 231.941 443.445 231.801 442.798 231.801H269.362L291.766 342.486Z" fill="#3F3D56"/>
<path d="M315.773 343.848L300.66 231.079L302.362 230.797L317.475 343.566L315.773 343.848Z" fill="#3F3D56"/>
<path d="M399.808 342.982L398.105 342.705L412.777 230.8L414.48 231.076L399.808 342.982Z" fill="#3F3D56"/>
<path d="M359.77 230.938H358.045V343.707H359.77V230.938Z" fill="#3F3D56"/>
<path d="M276.081 261.155L276.077 262.882L443.084 263.287L443.088 261.56L276.081 261.155Z" fill="#3F3D56"/>
<path d="M431.303 314.495L284.584 315.499L284.596 317.225L431.315 316.222L431.303 314.495Z" fill="#3F3D56"/>
<path d="M238.985 213.671C244.226 213.671 248.474 211.352 248.474 208.491C248.474 205.63 244.226 203.311 238.985 203.311C233.744 203.311 229.496 205.63 229.496 208.491C229.496 211.352 233.744 213.671 238.985 213.671Z" fill="#3F3D56"/>
</g>
<defs>
<clipPath id="clip0">
<rect width="449" height="375" fill="white" transform="translate(0 0.5)"/>
</clipPath>
</defs>
</svg>
