<svg width="510" height="426" viewBox="0 0 510 426" fill="none" xmlns="http://www.w3.org/2000/svg">
<g opacity="0.6" clip-path="url(#clip0)">
<path d="M23.6979 405.933C30.7721 419.06 45.7862 424.696 45.7862 424.696C45.7862 424.696 49.3306 409.047 42.2564 395.92C35.1822 382.793 20.1682 377.157 20.1682 377.157C20.1682 377.157 16.6237 392.806 23.6979 405.933Z" fill="#2F2E41"/>
<path d="M28.5603 401.614C41.3322 409.303 46.251 424.575 46.251 424.575C46.251 424.575 30.4626 427.381 17.6907 419.692C4.91885 412.003 0 396.732 0 396.732C0 396.732 15.7884 393.926 28.5603 401.614Z" fill="#ECECEC"/>
<path d="M314.907 20.4509H235.22V21.59H314.907V20.4509Z" fill="#F2F2F2"/>
<path d="M293.278 21.3053H292.139V31.8417H293.278V21.3053Z" fill="#F2F2F2"/>
<path d="M258.557 21.3053H257.418V31.8417H258.557V21.3053Z" fill="#F2F2F2"/>
<path d="M355.32 75.1268H275.633V76.2659H355.32V75.1268Z" fill="#F2F2F2"/>
<path d="M298.4 64.8751H297.262V75.4116H298.4V64.8751Z" fill="#F2F2F2"/>
<path d="M333.121 64.8751H331.983V75.4116H333.121V64.8751Z" fill="#F2F2F2"/>
<path d="M461.191 100.756H381.503V101.895H461.191V100.756Z" fill="#F2F2F2"/>
<path d="M404.271 90.5044H403.133V101.041H404.271V90.5044Z" fill="#F2F2F2"/>
<path d="M438.992 90.5044H437.853V101.041H438.992V90.5044Z" fill="#F2F2F2"/>
<path d="M453.222 365.023H373.534V366.162H453.222V365.023Z" fill="#F2F2F2"/>
<path d="M396.302 354.771H395.164V365.308H396.302V354.771Z" fill="#F2F2F2"/>
<path d="M431.023 354.771H429.885V365.308H431.023V354.771Z" fill="#F2F2F2"/>
<path d="M317.184 182.2H237.496V183.339H317.184V182.2Z" fill="#F2F2F2"/>
<path d="M260.264 171.949H259.126V182.485H260.264V171.949Z" fill="#F2F2F2"/>
<path d="M294.985 171.949H293.847V182.485H294.985V171.949Z" fill="#F2F2F2"/>
<path d="M342.228 319.46H262.541V320.599H342.228V319.46Z" fill="#F2F2F2"/>
<path d="M285.309 309.208H284.17V319.744H285.309V309.208Z" fill="#F2F2F2"/>
<path d="M320.03 309.208H318.891V319.744H320.03V309.208Z" fill="#F2F2F2"/>
<path d="M469.728 277.883H390.041V279.022H469.728V277.883Z" fill="#F2F2F2"/>
<path d="M412.809 267.631H411.67V278.168H412.809V267.631Z" fill="#F2F2F2"/>
<path d="M447.53 267.631H446.391V278.168H447.53V267.631Z" fill="#F2F2F2"/>
<path d="M206.083 399.922H71.3055V398.952H205.113V351.897H82.6359L76.6861 339.494L77.5604 339.074L83.2461 350.926H206.083V399.922Z" fill="#2F2E41"/>
<path d="M89.2434 423.692C94.8663 423.692 99.4245 419.131 99.4245 413.505C99.4245 407.879 94.8663 403.318 89.2434 403.318C83.6206 403.318 79.0624 407.879 79.0624 413.505C79.0624 419.131 83.6206 423.692 89.2434 423.692Z" fill="#3F3D56"/>
<path d="M189.6 423.692C195.222 423.692 199.781 419.131 199.781 413.505C199.781 407.879 195.222 403.318 189.6 403.318C183.977 403.318 179.419 407.879 179.419 413.505C179.419 419.131 183.977 423.692 189.6 423.692Z" fill="#3F3D56"/>
<path d="M307.894 203.455C311.375 203.455 314.196 200.631 314.196 197.148C314.196 193.665 311.375 190.842 307.894 190.842C304.413 190.842 301.591 193.665 301.591 197.148C301.591 200.631 304.413 203.455 307.894 203.455Z" fill="#3F3D56"/>
<path d="M220.498 335.888H69.0075L36.2285 228.68H254.256L254.057 229.311L220.498 335.888ZM69.7248 334.918H219.787L252.934 229.65H37.539L69.7248 334.918Z" fill="#2F2E41"/>
<path d="M208.673 330.31H75.6132L46.8221 235.229H238.323L238.149 235.789L208.673 330.31Z" fill="#F2F2F2"/>
<path d="M256.972 219.102L256.035 218.853L262.433 194.722H299.652V195.693H263.179L256.972 219.102Z" fill="#2F2E41"/>
<path d="M243.361 261.182H46.8212V262.152H243.361V261.182Z" fill="#2F2E41"/>
<path d="M232.105 296.926H57.7501V297.897H232.105V296.926Z" fill="#2F2E41"/>
<path d="M145.724 229.165H144.754V335.403H145.724V229.165Z" fill="#2F2E41"/>
<path d="M189.136 229.135L182.176 335.37L183.143 335.434L190.104 229.198L189.136 229.135Z" fill="#2F2E41"/>
<path d="M101.363 229.134L100.395 229.197L107.315 335.435L108.283 335.372L101.363 229.134Z" fill="#2F2E41"/>
<path d="M510 424.308H0V425.447H510V424.308Z" fill="#2F2E41"/>
<path d="M338.906 35.2409C338.906 35.2409 347.226 58.9373 342.106 62.5829C336.985 66.2286 359.387 96.001 359.387 96.001L386.27 88.7098L371.549 63.7981C371.549 63.7981 369.628 38.8865 369.628 35.2409C369.628 31.5952 338.906 35.2409 338.906 35.2409Z" fill="#A0616A"/>
<path opacity="0.1" d="M338.906 35.2409C338.906 35.2409 347.226 58.9373 342.106 62.5829C336.985 66.2286 359.387 96.001 359.387 96.001L386.27 88.7098L371.549 63.7981C371.549 63.7981 369.628 38.8865 369.628 35.2409C369.628 31.5952 338.906 35.2409 338.906 35.2409Z" fill="black"/>
<path d="M324.939 204.154C324.939 204.154 322.51 234.534 324.939 250.332C327.368 266.129 331.012 309.877 331.012 309.877C331.012 309.877 331.012 392.51 344.371 393.726C357.73 394.941 367.446 396.156 368.66 391.295C369.875 386.435 362.588 384.004 366.231 381.574C369.875 379.143 371.089 370.637 366.231 360.915C361.373 351.194 366.231 252.762 366.231 252.762L389.306 314.738C389.306 314.738 391.735 365.776 394.164 373.067C396.593 380.358 391.735 393.726 400.236 394.941C408.738 396.156 418.453 388.865 423.311 386.434C428.169 384.004 416.024 384.004 418.453 382.789C420.882 381.574 428.169 377.928 425.74 376.713C423.311 375.498 420.882 317.168 420.882 317.168C420.882 317.168 414.203 192.61 405.701 187.749C397.2 182.888 391.735 191.261 391.735 191.261L324.939 204.154Z" fill="#2F2E41"/>
<path d="M346.8 388.865V398.587C346.8 398.587 335.869 425.013 346.8 425.013C357.73 425.013 366.231 427.751 366.231 424.106V391.295L346.8 388.865Z" fill="#2F2E41"/>
<path d="M418.453 388.848V398.569C418.453 398.569 429.384 424.996 418.453 424.996C407.523 424.996 399.022 427.734 399.022 424.089V391.278L418.453 388.848Z" fill="#2F2E41"/>
<path d="M355.908 52.8613C367.981 52.8613 377.769 43.0681 377.769 30.9877C377.769 18.9072 367.981 9.11401 355.908 9.11401C343.835 9.11401 334.048 18.9072 334.048 30.9877C334.048 43.0681 343.835 52.8613 355.908 52.8613Z" fill="#A0616A"/>
<path d="M349.229 71.697C349.229 71.697 355.301 89.925 365.017 86.2794L374.732 82.6338L391.735 199.293C391.735 199.293 378.376 218.737 358.944 206.584C339.513 194.432 349.229 71.697 349.229 71.697Z" fill="#ECECEC"/>
<path d="M366.231 68.0514L371.696 56.507C371.696 56.507 403.88 71.697 408.738 76.5578C413.595 81.4186 413.595 88.7098 413.595 88.7098L405.094 119.09C405.094 119.09 407.523 185.926 407.523 188.356C407.523 190.787 416.024 204.154 409.952 199.293C403.88 194.432 402.665 189.572 397.807 196.863C392.949 204.154 382.019 212.661 382.019 212.661L366.231 68.0514Z" fill="#3F3D56"/>
<path d="M408.738 155.546L405.094 189.572C405.094 189.572 383.234 209.015 388.092 210.23C392.949 211.445 395.378 206.584 395.378 206.584C395.378 206.584 403.88 215.091 408.738 210.23C413.595 205.369 425.74 159.192 425.74 159.192L408.738 155.546Z" fill="#A0616A"/>
<path d="M356.374 0.0739668C351.528 -0.0993842 346.342 -0.185135 342.256 2.428C340.376 3.73942 338.727 5.35456 337.376 7.20731C333.397 12.2412 329.958 18.5749 331.436 24.8206L333.153 24.1506C333.153 25.8177 332.783 27.464 332.069 28.9704C332.311 28.2669 333.12 29.4041 332.903 30.1156L331.012 36.324C334.121 35.1836 337.989 37.4926 338.462 40.7719C338.678 33.5608 339.426 25.292 345.272 21.0696C348.22 18.9403 351.951 18.2903 355.541 17.713C358.853 17.1805 362.325 16.6727 365.497 17.7637C368.669 18.8546 371.37 22.1007 370.651 25.3789C372.114 24.8748 373.749 25.8948 374.472 27.2633C375.195 28.6319 375.233 30.2463 375.255 31.794C376.814 32.8966 378.588 30.7072 379.224 28.9058C380.715 24.6774 382.041 20.1763 381.237 15.7648C380.434 11.3534 376.841 7.13757 372.36 7.12261C372.904 6.52478 373.194 5.73869 373.169 4.9306L369.476 4.61832C370.413 4.48546 371.276 4.03052 371.915 3.33141C370.432 4.96425 358.772 0.159745 356.374 0.0739668Z" fill="#2F2E41"/>
<path d="M355.301 64.4058C355.301 64.4058 345.414 54.7117 341.856 55.3055C338.298 55.8993 333.44 64.4058 333.44 64.4058C333.44 64.4058 304.293 74.1274 305.508 83.849C306.722 93.5706 320.081 140.964 320.081 140.964C320.081 140.964 331.012 198.078 321.296 204.154C311.58 210.23 367.446 226.028 368.66 218.736C369.875 211.445 372.303 138.533 368.66 127.596C365.017 116.659 355.301 64.4058 355.301 64.4058Z" fill="#3F3D56"/>
<path d="M397.807 83.849H412.824C412.824 83.849 423.311 130.027 424.526 134.888C425.74 139.748 428.169 162.837 426.955 162.837C425.74 162.837 401.451 157.976 401.451 161.622L397.807 83.849Z" fill="#3F3D56"/>
<path d="M397.299 198.2H339.81C334.2 172.377 333.731 147.428 339.81 123.59H397.299C388.022 146.999 387.442 171.777 397.299 198.2Z" fill="#F2F2F2"/>
<path d="M316.438 166.483L333.441 173.774C333.441 173.774 366.231 178.635 366.231 165.268C366.231 151.9 333.441 159.192 333.441 159.192L322.51 155.695L316.438 166.483Z" fill="#A0616A"/>
<path d="M320.081 76.5578L305.508 80.2034L294.578 144.609C294.578 144.609 290.934 161.622 297.006 162.837C303.079 164.052 320.081 173.774 320.081 173.774C320.081 173.774 322.51 155.546 327.368 155.546L315.223 145.824L322.51 103.292L320.081 76.5578Z" fill="#3F3D56"/>
<path d="M113.981 200.995H34.2932V202.134H113.981V200.995Z" fill="#F2F2F2"/>
<path d="M57.0611 190.744H55.9227V201.28H57.0611V190.744Z" fill="#F2F2F2"/>
<path d="M91.7821 190.744H90.6437V201.28H91.7821V190.744Z" fill="#F2F2F2"/>
<path d="M141.871 32.4113H62.1839V33.5504H141.871V32.4113Z" fill="#F2F2F2"/>
<path d="M120.242 33.2656H119.103V43.8021H120.242V33.2656Z" fill="#F2F2F2"/>
<path d="M85.5209 33.2656H84.3825V43.8021H85.5209V33.2656Z" fill="#F2F2F2"/>
<path d="M222.128 144.611H142.441V145.75H222.128V144.611Z" fill="#F2F2F2"/>
<path d="M200.499 145.465H199.36V156.002H200.499V145.465Z" fill="#F2F2F2"/>
<path d="M165.778 145.465H164.639V156.002H165.778V145.465Z" fill="#F2F2F2"/>
<path d="M86.6593 144.041H6.9718V145.18H86.6593V144.041Z" fill="#F2F2F2"/>
<path d="M65.0298 144.896H63.8914V155.432H65.0298V144.896Z" fill="#F2F2F2"/>
<path d="M30.3089 144.896H29.1705V155.432H30.3089V144.896Z" fill="#F2F2F2"/>
<path d="M182.284 87.0872H102.597V88.2263H182.284V87.0872Z" fill="#F2F2F2"/>
<path d="M125.365 76.8354H124.226V87.3719H125.365V76.8354Z" fill="#F2F2F2"/>
<path d="M160.086 76.8354H158.947V87.3719H160.086V76.8354Z" fill="#F2F2F2"/>
</g>
<defs>
<clipPath id="clip0">
<rect width="510" height="426" fill="white"/>
</clipPath>
</defs>
</svg>
