<svg width="185" height="79" viewBox="0 0 185 79" fill="none" xmlns="http://www.w3.org/2000/svg">
<path d="M56.8689 8.6L46.8849 31H45.2529L35.2689 8.6H37.0609L46.1169 28.888L55.1729 8.6H56.8689Z" fill="#29292E"/>
<path d="M64.3197 14.168C66.389 14.168 67.9783 14.7013 69.0877 15.768C70.197 16.8133 70.7517 18.36 70.7517 20.408V31H69.2157V28.024C68.6823 29.0053 67.9037 29.7733 66.8797 30.328C65.8557 30.8613 64.629 31.128 63.1997 31.128C61.3437 31.128 59.8717 30.6907 58.7837 29.816C57.717 28.9413 57.1837 27.7893 57.1837 26.36C57.1837 24.9733 57.6743 23.8533 58.6557 23C59.6583 22.1253 61.2477 21.688 63.4237 21.688H69.1517V20.344C69.1517 18.7867 68.725 17.6027 67.8717 16.792C67.0397 15.9813 65.813 15.576 64.1917 15.576C63.0823 15.576 62.0157 15.768 60.9917 16.152C59.989 16.536 59.1357 17.048 58.4317 17.688L57.6317 16.536C58.4637 15.7893 59.4663 15.2133 60.6397 14.808C61.813 14.3813 63.0397 14.168 64.3197 14.168ZM63.4237 29.816C64.8103 29.816 65.9837 29.496 66.9437 28.856C67.925 28.216 68.661 27.288 69.1517 26.072V22.936H63.4557C61.813 22.936 60.6183 23.2347 59.8717 23.832C59.1463 24.4293 58.7837 25.2507 58.7837 26.296C58.7837 27.384 59.189 28.248 59.9997 28.888C60.8103 29.5067 61.9517 29.816 63.4237 29.816Z" fill="#29292E"/>
<path d="M98.1439 14.168C100.213 14.168 101.835 14.776 103.008 15.992C104.203 17.208 104.8 18.9573 104.8 21.24V31H103.2V21.368C103.2 19.4907 102.741 18.0613 101.824 17.08C100.907 16.0987 99.6266 15.608 97.9839 15.608C96.1066 15.608 94.6133 16.1947 93.5039 17.368C92.4159 18.5413 91.8719 20.12 91.8719 22.104V31H90.2719V21.368C90.2719 19.4907 89.8133 18.0613 88.8959 17.08C87.9786 16.0987 86.6986 15.608 85.0559 15.608C83.1786 15.608 81.6853 16.1947 80.5759 17.368C79.4879 18.5413 78.9439 20.12 78.9439 22.104V31H77.3439V14.296H78.8799V17.88C79.4346 16.7067 80.2559 15.8 81.3439 15.16C82.4533 14.4987 83.7653 14.168 85.2799 14.168C86.7946 14.168 88.0746 14.5093 89.1199 15.192C90.1866 15.8747 90.9439 16.8773 91.3919 18.2C91.9466 16.9627 92.8106 15.9813 93.9839 15.256C95.1786 14.5307 96.5653 14.168 98.1439 14.168Z" fill="#29292E"/>
<path d="M117.966 31.128C116.387 31.128 114.958 30.7653 113.678 30.04C112.419 29.3147 111.427 28.312 110.702 27.032C109.976 25.7307 109.614 24.2693 109.614 22.648C109.614 21.0267 109.976 19.576 110.702 18.296C111.427 16.9947 112.419 15.9813 113.678 15.256C114.958 14.5307 116.387 14.168 117.966 14.168C119.544 14.168 120.963 14.5307 122.222 15.256C123.502 15.9813 124.504 16.9947 125.23 18.296C125.955 19.576 126.318 21.0267 126.318 22.648C126.318 24.2693 125.955 25.7307 125.23 27.032C124.504 28.312 123.502 29.3147 122.222 30.04C120.963 30.7653 119.544 31.128 117.966 31.128ZM117.966 29.688C119.246 29.688 120.387 29.3893 121.39 28.792C122.414 28.1947 123.214 27.3627 123.79 26.296C124.387 25.2293 124.686 24.0133 124.686 22.648C124.686 21.2827 124.387 20.0667 123.79 19C123.214 17.9333 122.414 17.1013 121.39 16.504C120.387 15.9067 119.246 15.608 117.966 15.608C116.686 15.608 115.534 15.9067 114.51 16.504C113.507 17.1013 112.707 17.9333 112.11 19C111.534 20.0667 111.246 21.2827 111.246 22.648C111.246 24.0133 111.534 25.2293 112.11 26.296C112.707 27.3627 113.507 28.1947 114.51 28.792C115.534 29.3893 116.686 29.688 117.966 29.688Z" fill="#29292E"/>
<path d="M135.505 31.128C134.161 31.128 132.881 30.9253 131.665 30.52C130.449 30.1147 129.5 29.6027 128.817 28.984L129.553 27.704C130.236 28.28 131.111 28.76 132.177 29.144C133.265 29.528 134.396 29.72 135.569 29.72C137.255 29.72 138.492 29.4427 139.281 28.888C140.092 28.3333 140.497 27.5653 140.497 26.584C140.497 25.88 140.273 25.3253 139.825 24.92C139.399 24.5147 138.865 24.216 138.225 24.024C137.585 23.832 136.7 23.6293 135.569 23.416C134.247 23.1813 133.18 22.9253 132.369 22.648C131.559 22.3707 130.865 21.9227 130.289 21.304C129.713 20.6853 129.425 19.832 129.425 18.744C129.425 17.4213 129.969 16.3333 131.057 15.48C132.167 14.6053 133.735 14.168 135.761 14.168C136.828 14.168 137.884 14.3173 138.929 14.616C139.975 14.9147 140.828 15.3093 141.489 15.8L140.753 17.08C140.071 16.5893 139.292 16.216 138.417 15.96C137.543 15.704 136.647 15.576 135.729 15.576C134.172 15.576 132.999 15.864 132.209 16.44C131.42 17.016 131.025 17.7733 131.025 18.712C131.025 19.4587 131.249 20.0453 131.697 20.472C132.145 20.8773 132.689 21.1867 133.329 21.4C133.991 21.592 134.908 21.8053 136.081 22.04C137.383 22.2747 138.428 22.5307 139.217 22.808C140.028 23.064 140.711 23.4907 141.265 24.088C141.82 24.6853 142.097 25.5067 142.097 26.552C142.097 27.9387 141.521 29.048 140.369 29.88C139.217 30.712 137.596 31.128 135.505 31.128Z" fill="#29292E"/>
<path d="M48.4529 57.384C46.1702 57.384 44.1009 56.8933 42.2449 55.912C40.4102 54.9093 38.9596 53.5333 37.8929 51.784C36.8476 50.0133 36.3249 48.0187 36.3249 45.8C36.3249 43.5813 36.8476 41.5973 37.8929 39.848C38.9596 38.0773 40.4102 36.7013 42.2449 35.72C44.1009 34.7173 46.1809 34.216 48.4849 34.216C50.4262 34.216 52.1756 34.5573 53.7329 35.24C55.3116 35.9227 56.6342 36.904 57.7009 38.184L54.3729 41.256C52.8582 39.5067 50.9809 38.632 48.7409 38.632C47.3542 38.632 46.1169 38.9413 45.0289 39.56C43.9409 40.1573 43.0876 41 42.4689 42.088C41.8716 43.176 41.5729 44.4133 41.5729 45.8C41.5729 47.1867 41.8716 48.424 42.4689 49.512C43.0876 50.6 43.9409 51.4533 45.0289 52.072C46.1169 52.6693 47.3542 52.968 48.7409 52.968C50.9809 52.968 52.8582 52.0827 54.3729 50.312L57.7009 53.384C56.6342 54.6853 55.3116 55.6773 53.7329 56.36C52.1542 57.0427 50.3942 57.384 48.4529 57.384Z" fill="#FF9900"/>
<path d="M68.4479 57.256C66.6346 57.256 65.0026 56.8827 63.5519 56.136C62.1226 55.368 61.0026 54.312 60.1919 52.968C59.3812 51.624 58.9759 50.0987 58.9759 48.392C58.9759 46.6853 59.3812 45.16 60.1919 43.816C61.0026 42.472 62.1226 41.4267 63.5519 40.68C65.0026 39.912 66.6346 39.528 68.4479 39.528C70.2612 39.528 71.8826 39.912 73.3119 40.68C74.7412 41.4267 75.8612 42.472 76.6719 43.816C77.4826 45.16 77.8879 46.6853 77.8879 48.392C77.8879 50.0987 77.4826 51.624 76.6719 52.968C75.8612 54.312 74.7412 55.368 73.3119 56.136C71.8826 56.8827 70.2612 57.256 68.4479 57.256ZM68.4479 53.16C69.7279 53.16 70.7732 52.7333 71.5839 51.88C72.4159 51.0053 72.8319 49.8427 72.8319 48.392C72.8319 46.9413 72.4159 45.7893 71.5839 44.936C70.7732 44.0613 69.7279 43.624 68.4479 43.624C67.1679 43.624 66.1119 44.0613 65.2799 44.936C64.4479 45.7893 64.0319 46.9413 64.0319 48.392C64.0319 49.8427 64.4479 51.0053 65.2799 51.88C66.1119 52.7333 67.1679 53.16 68.4479 53.16Z" fill="#FF9900"/>
<path d="M103.273 39.528C105.427 39.528 107.134 40.168 108.393 41.448C109.673 42.7067 110.313 44.6053 110.313 47.144V57H105.321V47.912C105.321 46.5467 105.033 45.5333 104.457 44.872C103.902 44.1893 103.102 43.848 102.057 43.848C100.883 43.848 99.9553 44.232 99.2726 45C98.59 45.7467 98.2486 46.8667 98.2486 48.36V57H93.2566V47.912C93.2566 45.2027 92.1686 43.848 89.9926 43.848C88.8406 43.848 87.9233 44.232 87.2406 45C86.558 45.7467 86.2166 46.8667 86.2166 48.36V57H81.2246V39.784H85.9926V41.768C86.6326 41.0427 87.4113 40.488 88.3286 40.104C89.2673 39.72 90.2913 39.528 91.4006 39.528C92.6166 39.528 93.7153 39.7733 94.6966 40.264C95.678 40.7333 96.4673 41.4267 97.0646 42.344C97.7686 41.448 98.654 40.7547 99.7206 40.264C100.809 39.7733 101.993 39.528 103.273 39.528Z" fill="#FF9900"/>
<path d="M124.963 39.528C126.563 39.528 128.014 39.9013 129.315 40.648C130.638 41.3733 131.672 42.408 132.419 43.752C133.166 45.0747 133.539 46.6213 133.539 48.392C133.539 50.1627 133.166 51.72 132.419 53.064C131.672 54.3867 130.638 55.4213 129.315 56.168C128.014 56.8933 126.563 57.256 124.963 57.256C122.766 57.256 121.038 56.5627 119.779 55.176V63.208H114.787V39.784H119.555V41.768C120.792 40.2747 122.595 39.528 124.963 39.528ZM124.099 53.16C125.379 53.16 126.424 52.7333 127.235 51.88C128.067 51.0053 128.483 49.8427 128.483 48.392C128.483 46.9413 128.067 45.7893 127.235 44.936C126.424 44.0613 125.379 43.624 124.099 43.624C122.819 43.624 121.763 44.0613 120.931 44.936C120.12 45.7893 119.715 46.9413 119.715 48.392C119.715 49.8427 120.12 51.0053 120.931 51.88C121.763 52.7333 122.819 53.16 124.099 53.16Z" fill="#FF9900"/>
<path d="M141.649 42.056C142.246 41.224 143.046 40.5947 144.049 40.168C145.073 39.7413 146.246 39.528 147.569 39.528V44.136C147.014 44.0933 146.641 44.072 146.449 44.072C145.02 44.072 143.9 44.4773 143.089 45.288C142.278 46.0773 141.873 47.272 141.873 48.872V57H136.881V39.784H141.649V42.056Z" fill="#FF9900"/>
<path d="M157.387 39.528C160.054 39.528 162.102 40.168 163.531 41.448C164.961 42.7067 165.675 44.616 165.675 47.176V57H161.003V54.856C160.065 56.456 158.315 57.256 155.755 57.256C154.433 57.256 153.281 57.032 152.299 56.584C151.339 56.136 150.603 55.5173 150.091 54.728C149.579 53.9387 149.323 53.0427 149.323 52.04C149.323 50.44 149.921 49.1813 151.115 48.264C152.331 47.3467 154.198 46.888 156.715 46.888H160.683C160.683 45.8 160.353 44.968 159.691 44.392C159.03 43.7947 158.038 43.496 156.715 43.496C155.798 43.496 154.891 43.6453 153.995 43.944C153.121 44.2213 152.374 44.6053 151.755 45.096L149.963 41.608C150.902 40.9467 152.022 40.4347 153.323 40.072C154.646 39.7093 156.001 39.528 157.387 39.528ZM157.003 53.896C157.857 53.896 158.614 53.704 159.275 53.32C159.937 52.9147 160.406 52.328 160.683 51.56V49.8H157.259C155.211 49.8 154.187 50.472 154.187 51.816C154.187 52.456 154.433 52.968 154.923 53.352C155.435 53.7147 156.129 53.896 157.003 53.896Z" fill="#FF9900"/>
<path d="M174.961 42.056C175.559 41.224 176.359 40.5947 177.361 40.168C178.385 39.7413 179.559 39.528 180.881 39.528V44.136C180.327 44.0933 179.953 44.072 179.761 44.072C178.332 44.072 177.212 44.4773 176.401 45.288C175.591 46.0773 175.185 47.272 175.185 48.872V57H170.193V39.784H174.961V42.056Z" fill="#FF9900"/>
<path d="M1.5 5L11.9654 8.55072L22.4308 12.1014L34.7484 62.2171M34.7484 62.2171L22.4308 78M34.7484 62.2171H112.71M122 62.2171H152.264H181.5L174.621 78" stroke="#6F6F6F" stroke-width="2" stroke-linecap="round" stroke-linejoin="round"/>
</svg>
