<?xml version="1.0" standalone="no"?>
<!DOCTYPE svg PUBLIC "-//W3C//DTD SVG 20010904//EN"
 "http://www.w3.org/TR/2001/REC-SVG-20010904/DTD/svg10.dtd">
<svg version="1.0" xmlns="http://www.w3.org/2000/svg"
 width="180.000000pt" height="180.000000pt" viewBox="0 0 180.000000 180.000000"
 preserveAspectRatio="xMidYMid meet">
<metadata>
Created by potrace 1.14, written by Peter Selinger 2001-2017
</metadata>
<g transform="translate(0.000000,180.000000) scale(0.100000,-0.100000)"
fill="#000000" stroke="none">
<path d="M30 1780 c-11 -11 -22 -30 -25 -42 -3 -13 -4 -400 -3 -861 l3 -838
25 -19 c24 -19 52 -20 867 -20 463 0 849 3 858 6 45 18 45 13 45 891 0 455 -3
838 -6 851 -15 53 5 52 -904 52 -823 0 -840 0 -860 -20z"/>
</g>
</svg>
