<svg width="184" height="79" viewBox="0 0 184 79" fill="none" xmlns="http://www.w3.org/2000/svg">
<path d="M56.3689 8.59998L46.3849 31H44.7529L34.7689 8.59998H36.5609L45.6169 28.888L54.6729 8.59998H56.3689Z" fill="#F8F8F8"/>
<path d="M63.8197 14.168C65.889 14.168 67.4783 14.7013 68.5877 15.768C69.697 16.8133 70.2517 18.36 70.2517 20.408V31H68.7157V28.024C68.1823 29.0053 67.4037 29.7733 66.3797 30.328C65.3557 30.8613 64.129 31.128 62.6997 31.128C60.8437 31.128 59.3717 30.6906 58.2837 29.816C57.217 28.9413 56.6837 27.7893 56.6837 26.36C56.6837 24.9733 57.1743 23.8533 58.1557 23C59.1583 22.1253 60.7477 21.688 62.9237 21.688H68.6517V20.344C68.6517 18.7866 68.225 17.6026 67.3717 16.792C66.5397 15.9813 65.313 15.576 63.6917 15.576C62.5823 15.576 61.5157 15.768 60.4917 16.152C59.489 16.536 58.6357 17.048 57.9317 17.688L57.1317 16.536C57.9637 15.7893 58.9663 15.2133 60.1397 14.808C61.313 14.3813 62.5397 14.168 63.8197 14.168ZM62.9237 29.816C64.3103 29.816 65.4837 29.496 66.4437 28.856C67.425 28.216 68.161 27.288 68.6517 26.072V22.936H62.9557C61.313 22.936 60.1183 23.2346 59.3717 23.832C58.6463 24.4293 58.2837 25.2506 58.2837 26.296C58.2837 27.384 58.689 28.248 59.4997 28.888C60.3103 29.5066 61.4517 29.816 62.9237 29.816Z" fill="#F8F8F8"/>
<path d="M97.6439 14.168C99.7133 14.168 101.335 14.776 102.508 15.992C103.703 17.208 104.3 18.9573 104.3 21.24V31H102.7V21.368C102.7 19.4906 102.241 18.0613 101.324 17.08C100.407 16.0986 99.1266 15.608 97.4839 15.608C95.6066 15.608 94.1133 16.1946 93.0039 17.368C91.9159 18.5413 91.3719 20.12 91.3719 22.104V31H89.7719V21.368C89.7719 19.4906 89.3133 18.0613 88.3959 17.08C87.4786 16.0986 86.1986 15.608 84.5559 15.608C82.6786 15.608 81.1853 16.1946 80.0759 17.368C78.9879 18.5413 78.4439 20.12 78.4439 22.104V31H76.8439V14.296H78.3799V17.88C78.9346 16.7066 79.7559 15.8 80.8439 15.16C81.9533 14.4986 83.2653 14.168 84.7799 14.168C86.2946 14.168 87.5746 14.5093 88.6199 15.192C89.6866 15.8746 90.4439 16.8773 90.8919 18.2C91.4466 16.9626 92.3106 15.9813 93.4839 15.256C94.6786 14.5306 96.0653 14.168 97.6439 14.168Z" fill="#F8F8F8"/>
<path d="M117.466 31.128C115.887 31.128 114.458 30.7653 113.178 30.04C111.919 29.3146 110.927 28.312 110.202 27.032C109.476 25.7306 109.114 24.2693 109.114 22.648C109.114 21.0266 109.476 19.576 110.202 18.296C110.927 16.9946 111.919 15.9813 113.178 15.256C114.458 14.5306 115.887 14.168 117.466 14.168C119.044 14.168 120.463 14.5306 121.722 15.256C123.002 15.9813 124.004 16.9946 124.73 18.296C125.455 19.576 125.818 21.0266 125.818 22.648C125.818 24.2693 125.455 25.7306 124.73 27.032C124.004 28.312 123.002 29.3146 121.722 30.04C120.463 30.7653 119.044 31.128 117.466 31.128ZM117.466 29.688C118.746 29.688 119.887 29.3893 120.89 28.792C121.914 28.1946 122.714 27.3626 123.29 26.296C123.887 25.2293 124.186 24.0133 124.186 22.648C124.186 21.2826 123.887 20.0666 123.29 19C122.714 17.9333 121.914 17.1013 120.89 16.504C119.887 15.9066 118.746 15.608 117.466 15.608C116.186 15.608 115.034 15.9066 114.01 16.504C113.007 17.1013 112.207 17.9333 111.61 19C111.034 20.0666 110.746 21.2826 110.746 22.648C110.746 24.0133 111.034 25.2293 111.61 26.296C112.207 27.3626 113.007 28.1946 114.01 28.792C115.034 29.3893 116.186 29.688 117.466 29.688Z" fill="#F8F8F8"/>
<path d="M135.005 31.128C133.661 31.128 132.381 30.9253 131.165 30.52C129.949 30.1146 129 29.6026 128.317 28.984L129.053 27.704C129.736 28.28 130.611 28.76 131.677 29.144C132.765 29.528 133.896 29.72 135.069 29.72C136.755 29.72 137.992 29.4426 138.781 28.888C139.592 28.3333 139.997 27.5653 139.997 26.584C139.997 25.88 139.773 25.3253 139.325 24.92C138.899 24.5146 138.365 24.216 137.725 24.024C137.085 23.832 136.2 23.6293 135.069 23.416C133.747 23.1813 132.68 22.9253 131.869 22.648C131.059 22.3706 130.365 21.9226 129.789 21.304C129.213 20.6853 128.925 19.832 128.925 18.744C128.925 17.4213 129.469 16.3333 130.557 15.48C131.667 14.6053 133.235 14.168 135.261 14.168C136.328 14.168 137.384 14.3173 138.429 14.616C139.475 14.9146 140.328 15.3093 140.989 15.8L140.253 17.08C139.571 16.5893 138.792 16.216 137.917 15.96C137.043 15.704 136.147 15.576 135.229 15.576C133.672 15.576 132.499 15.864 131.709 16.44C130.92 17.016 130.525 17.7733 130.525 18.712C130.525 19.4586 130.749 20.0453 131.197 20.472C131.645 20.8773 132.189 21.1866 132.829 21.4C133.491 21.592 134.408 21.8053 135.581 22.04C136.883 22.2746 137.928 22.5306 138.717 22.808C139.528 23.064 140.211 23.4906 140.765 24.088C141.32 24.6853 141.597 25.5066 141.597 26.552C141.597 27.9386 141.021 29.048 139.869 29.88C138.717 30.712 137.096 31.128 135.005 31.128Z" fill="#F8F8F8"/>
<path d="M47.9529 57.3839C45.6702 57.3839 43.6009 56.8933 41.7449 55.9119C39.9102 54.9093 38.4596 53.5333 37.3929 51.7839C36.3476 50.0133 35.8249 48.0186 35.8249 45.7999C35.8249 43.5813 36.3476 41.5973 37.3929 39.8479C38.4596 38.0773 39.9102 36.7013 41.7449 35.7199C43.6009 34.7173 45.6809 34.2159 47.9849 34.2159C49.9262 34.2159 51.6756 34.5573 53.2329 35.2399C54.8116 35.9226 56.1342 36.9039 57.2009 38.1839L53.8729 41.2559C52.3582 39.5066 50.4809 38.6319 48.2409 38.6319C46.8542 38.6319 45.6169 38.9413 44.5289 39.5599C43.4409 40.1573 42.5876 40.9999 41.9689 42.0879C41.3716 43.1759 41.0729 44.4133 41.0729 45.7999C41.0729 47.1866 41.3716 48.4239 41.9689 49.5119C42.5876 50.5999 43.4409 51.4533 44.5289 52.0719C45.6169 52.6693 46.8542 52.9679 48.2409 52.9679C50.4809 52.9679 52.3582 52.0826 53.8729 50.3119L57.2009 53.3839C56.1342 54.6853 54.8116 55.6773 53.2329 56.3599C51.6542 57.0426 49.8942 57.3839 47.9529 57.3839Z" fill="#FF9900"/>
<path d="M67.9479 57.2559C66.1346 57.2559 64.5026 56.8826 63.0519 56.1359C61.6226 55.3679 60.5026 54.3119 59.6919 52.9679C58.8812 51.6239 58.4759 50.0986 58.4759 48.3919C58.4759 46.6853 58.8812 45.1599 59.6919 43.8159C60.5026 42.4719 61.6226 41.4266 63.0519 40.6799C64.5026 39.9119 66.1346 39.5279 67.9479 39.5279C69.7612 39.5279 71.3826 39.9119 72.8119 40.6799C74.2412 41.4266 75.3612 42.4719 76.1719 43.8159C76.9826 45.1599 77.3879 46.6853 77.3879 48.3919C77.3879 50.0986 76.9826 51.6239 76.1719 52.9679C75.3612 54.3119 74.2412 55.3679 72.8119 56.1359C71.3826 56.8826 69.7612 57.2559 67.9479 57.2559ZM67.9479 53.1599C69.2279 53.1599 70.2732 52.7333 71.0839 51.8799C71.9159 51.0053 72.3319 49.8426 72.3319 48.3919C72.3319 46.9413 71.9159 45.7893 71.0839 44.9359C70.2732 44.0613 69.2279 43.6239 67.9479 43.6239C66.6679 43.6239 65.6119 44.0613 64.7799 44.9359C63.9479 45.7893 63.5319 46.9413 63.5319 48.3919C63.5319 49.8426 63.9479 51.0053 64.7799 51.8799C65.6119 52.7333 66.6679 53.1599 67.9479 53.1599Z" fill="#FF9900"/>
<path d="M102.773 39.5279C104.927 39.5279 106.634 40.1679 107.893 41.4479C109.173 42.7066 109.813 44.6053 109.813 47.1439V56.9999H104.821V47.9119C104.821 46.5466 104.533 45.5333 103.957 44.8719C103.402 44.1893 102.602 43.8479 101.557 43.8479C100.383 43.8479 99.4553 44.2319 98.7726 44.9999C98.09 45.7466 97.7486 46.8666 97.7486 48.3599V56.9999H92.7566V47.9119C92.7566 45.2026 91.6686 43.8479 89.4926 43.8479C88.3406 43.8479 87.4233 44.2319 86.7406 44.9999C86.058 45.7466 85.7166 46.8666 85.7166 48.3599V56.9999H80.7246V39.7839H85.4926V41.7679C86.1326 41.0426 86.9113 40.4879 87.8286 40.1039C88.7673 39.7199 89.7913 39.5279 90.9006 39.5279C92.1166 39.5279 93.2153 39.7733 94.1966 40.2639C95.178 40.7333 95.9673 41.4266 96.5646 42.3439C97.2686 41.4479 98.154 40.7546 99.2206 40.2639C100.309 39.7733 101.493 39.5279 102.773 39.5279Z" fill="#FF9900"/>
<path d="M124.463 39.5279C126.063 39.5279 127.514 39.9013 128.815 40.6479C130.138 41.3733 131.172 42.4079 131.919 43.7519C132.666 45.0746 133.039 46.6213 133.039 48.3919C133.039 50.1626 132.666 51.7199 131.919 53.0639C131.172 54.3866 130.138 55.4213 128.815 56.1679C127.514 56.8933 126.063 57.2559 124.463 57.2559C122.266 57.2559 120.538 56.5626 119.279 55.1759V63.2079H114.287V39.7839H119.055V41.7679C120.292 40.2746 122.095 39.5279 124.463 39.5279ZM123.599 53.1599C124.879 53.1599 125.924 52.7333 126.735 51.8799C127.567 51.0053 127.983 49.8426 127.983 48.3919C127.983 46.9413 127.567 45.7893 126.735 44.9359C125.924 44.0613 124.879 43.6239 123.599 43.6239C122.319 43.6239 121.263 44.0613 120.431 44.9359C119.62 45.7893 119.215 46.9413 119.215 48.3919C119.215 49.8426 119.62 51.0053 120.431 51.8799C121.263 52.7333 122.319 53.1599 123.599 53.1599Z" fill="#FF9900"/>
<path d="M141.149 42.0559C141.746 41.2239 142.546 40.5946 143.549 40.1679C144.573 39.7413 145.746 39.5279 147.069 39.5279V44.1359C146.514 44.0933 146.141 44.0719 145.949 44.0719C144.52 44.0719 143.4 44.4773 142.589 45.2879C141.778 46.0773 141.373 47.2719 141.373 48.8719V56.9999H136.381V39.7839H141.149V42.0559Z" fill="#FF9900"/>
<path d="M156.887 39.5279C159.554 39.5279 161.602 40.1679 163.031 41.4479C164.461 42.7066 165.175 44.6159 165.175 47.1759V56.9999H160.503V54.8559C159.565 56.4559 157.815 57.2559 155.255 57.2559C153.933 57.2559 152.781 57.0319 151.799 56.5839C150.839 56.1359 150.103 55.5173 149.591 54.7279C149.079 53.9386 148.823 53.0426 148.823 52.0399C148.823 50.4399 149.421 49.1813 150.615 48.2639C151.831 47.3466 153.698 46.8879 156.215 46.8879H160.183C160.183 45.7999 159.853 44.9679 159.191 44.3919C158.53 43.7946 157.538 43.4959 156.215 43.4959C155.298 43.4959 154.391 43.6453 153.495 43.9439C152.621 44.2213 151.874 44.6053 151.255 45.0959L149.463 41.6079C150.402 40.9466 151.522 40.4346 152.823 40.0719C154.146 39.7093 155.501 39.5279 156.887 39.5279ZM156.503 53.8959C157.357 53.8959 158.114 53.7039 158.775 53.3199C159.437 52.9146 159.906 52.3279 160.183 51.5599V49.7999H156.759C154.711 49.7999 153.687 50.4719 153.687 51.8159C153.687 52.4559 153.933 52.9679 154.423 53.3519C154.935 53.7146 155.629 53.8959 156.503 53.8959Z" fill="#FF9900"/>
<path d="M174.461 42.0559C175.059 41.2239 175.859 40.5946 176.861 40.1679C177.885 39.7413 179.059 39.5279 180.381 39.5279V44.1359C179.827 44.0933 179.453 44.0719 179.261 44.0719C177.832 44.0719 176.712 44.4773 175.901 45.2879C175.091 46.0773 174.685 47.2719 174.685 48.8719V56.9999H169.693V39.7839H174.461V42.0559Z" fill="#FF9900"/>
<path d="M1 5L11.4654 8.55072L21.9308 12.1014L34.2484 62.2171M34.2484 62.2171L21.9308 78M34.2484 62.2171H112.21M121.5 62.2171H151.764H181L174.121 78" stroke="#6F6F6F" stroke-width="2" stroke-linecap="round" stroke-linejoin="round"/>
</svg>
